<?xml version="1.0" encoding="utf-8"?>
<!-- Generator: Adobe Illustrator 26.1.0, SVG Export Plug-In . SVG Version: 6.00 Build 0)  -->
<svg version="1.1" id="Layer_1" xmlns="http://www.w3.org/2000/svg" xmlns:xlink="http://www.w3.org/1999/xlink" x="0px" y="0px"
	 viewBox="0 0 452.5 326.3" style="enable-background:new 0 0 452.5 326.3;" xml:space="preserve">
<style type="text/css">
	.st0{fill:#263238;}
	.st1{fill:#F8B02F;}
	.st2{opacity:0.9;fill:#FFFFFF;enable-background:new    ;}
	.st3{opacity:0.2;fill:#FFFFFF;enable-background:new    ;}
	.st4{opacity:0.6;fill:#FFFFFF;enable-background:new    ;}
	.st5{fill:#FFFFFF;}
	.st6{opacity:0.2;enable-background:new    ;}
	.st7{opacity:0.2;}
	.st8{opacity:0.5;fill:#FFFFFF;enable-background:new    ;}
	.st9{opacity:0.4;enable-background:new    ;}
	.st10{opacity:0.7;fill:#FFFFFF;enable-background:new    ;}
	.st11{fill:#EBB376;}
	.st12{fill:#D58745;}
	.st13{opacity:0.4;}
	.st14{opacity:0.4;fill:#FFFFFF;enable-background:new    ;}
</style>
<g id="freepik--Floor--inject-123" transform="translate(34.83 481.087)">
	<path id="Pfad_26272" class="st0" d="M417.7-156.5c0,0.2-101.3,0.3-226.2,0.3s-226.3-0.1-226.3-0.3c0-0.2,101.2-0.3,226.2-0.3
		S417.7-156.7,417.7-156.5z"/>
</g>
<g id="freepik--background-simple--inject-89">
	<path class="st1" d="M37.2,120.2C31.5,87.9,37,44.2,69.8,27.8C109.3,8.2,143,42.9,173,63.1c41.8,28.1,61.5-22.1,88.8-44.5
		c52.2-42.9,127-6,141.4,55.3c7.6,32.4-0.3,67.3-17.1,96.1c-55.8,95.7-194.3,133-283.6,60.5c-10.2-8.3-19.5-17.7-27.7-28
		C57.8,180.8,42.6,150.7,37.2,120.2z"/>
	<path class="st2" d="M37.2,120.2C31.5,87.9,37,44.2,69.8,27.8C109.3,8.2,143,42.9,173,63.1c41.8,28.1,61.5-22.1,88.8-44.5
		c52.2-42.9,127-6,141.4,55.3c7.6,32.4-0.3,67.3-17.1,96.1c-55.8,95.7-194.3,133-283.6,60.5c-10.2-8.3-19.5-17.7-27.7-28
		C57.8,180.8,42.6,150.7,37.2,120.2z"/>
</g>
<g id="freepik--Device--inject-89">
	<path class="st0" d="M234.8,45.4v1.7c0,0.4-0.3,0.7-0.7,0.7h-14.6c-0.4,0-0.7-0.3-0.7-0.7v-1.7c0-0.4,0.3-0.7,0.7-0.7h14.6
		C234.5,44.7,234.8,45,234.8,45.4z"/>
	<path class="st0" d="M249.6,103.3v25.2c0,0.4-0.3,0.7-0.7,0.7l0,0h-2.7l0,0v-26.6l0,0h2.7C249.3,102.6,249.6,102.9,249.6,103.3
		L249.6,103.3z"/>
	<path class="st0" d="M249.6,73.3v25.2c0,0.4-0.3,0.7-0.7,0.7l0,0h-2.7l0,0V72.6l0,0h2.7C249.3,72.6,249.6,72.9,249.6,73.3
		L249.6,73.3z"/>
	<path class="st0" d="M248.2,52.6v258.8c0,3.7-3,6.6-6.6,6.6H61c-3.7,0-6.6-3-6.6-6.6V52.6c0-3.7,3-6.6,6.6-6.6h180.5
		C245.2,46,248.2,49,248.2,52.6z"/>
	<path class="st3" d="M248.2,52.6v258.8c0,3.7-3,6.6-6.6,6.6H66c-3.7,0-6.6-3-6.6-6.6V52.6c0-3.7,3-6.6,6.6-6.6h175.5
		C245.2,46,248.2,49,248.2,52.6z"/>
	<circle class="st4" cx="157.3" cy="51" r="1.8"/>
	<circle class="st4" cx="149.4" cy="51" r="0.9"/>
	<circle class="st5" cx="153.8" cy="308.3" r="5.5"/>
	<rect x="64.8" y="56.5" class="st1" width="177.9" height="242.8"/>
	<rect x="64.8" y="64.1" class="st4" width="177.9" height="235.3"/>
	<circle class="st4" cx="226.6" cy="60.3" r="1.7"/>
	<circle class="st4" cx="232.4" cy="60.3" r="1.7"/>
	<circle class="st4" cx="238.2" cy="60.3" r="1.7"/>
	<rect x="64.8" y="64.1" class="st6" width="177.9" height="10.8"/>
	<path class="st4" d="M237.3,72h-55.1c-1.4,0-2.6-1.2-2.6-2.6v0l0,0c0-1.4,1.2-2.6,2.6-2.6h0h55.1c1.4,0,2.6,1.2,2.6,2.6v0l0,0
		C239.9,70.9,238.8,72,237.3,72L237.3,72z"/>
	<rect x="64.8" y="74.8" class="st4" width="130.2" height="224.5"/>
	<g class="st7">
		<rect x="199.4" y="79.2" width="39.1" height="28.2"/>
		<path d="M199.9,110.3h14.6c0.3,0,0.5-0.2,0.5-0.5c0-0.3-0.2-0.5-0.5-0.5h-14.6c-0.3,0-0.5,0.2-0.5,0.5S199.6,110.3,199.9,110.3z"
			/>
		<path d="M199.9,112.9H238c0.3,0,0.5-0.2,0.5-0.5s-0.2-0.5-0.5-0.5h-38.1c-0.3,0-0.5,0.2-0.5,0.5S199.6,112.9,199.9,112.9
			L199.9,112.9z"/>
		<path d="M238,114.5h-38.1c-0.3,0-0.5,0.2-0.5,0.5s0.2,0.5,0.5,0.5H238c0.3,0,0.5-0.2,0.5-0.5C238.5,114.7,238.3,114.5,238,114.5z"
			/>
	</g>
	<g class="st7">
		<rect x="199.4" y="129.2" width="39.1" height="28.2"/>
		<path d="M199.9,160.3h14.6c0.3,0,0.5-0.2,0.5-0.5c0-0.3-0.2-0.5-0.5-0.5h-14.6c-0.3,0-0.5,0.2-0.5,0.5S199.6,160.3,199.9,160.3z"
			/>
		<path d="M199.9,162.9H238c0.3,0,0.5-0.2,0.5-0.5s-0.2-0.5-0.5-0.5h-38.1c-0.3,0-0.5,0.2-0.5,0.5S199.6,162.9,199.9,162.9
			L199.9,162.9z"/>
		<path d="M238,164.5h-38.1c-0.3,0-0.5,0.2-0.5,0.5s0.2,0.5,0.5,0.5H238c0.3,0,0.5-0.2,0.5-0.5C238.5,164.7,238.3,164.5,238,164.5z"
			/>
	</g>
	<g class="st7">
		<rect x="199.4" y="179.2" width="39.1" height="28.2"/>
		<path d="M199.9,210.3h14.6c0.3,0,0.5-0.2,0.5-0.5c0-0.3-0.2-0.5-0.5-0.5h-14.6c-0.3,0-0.5,0.2-0.5,0.5S199.6,210.3,199.9,210.3z"
			/>
		<path d="M199.9,212.9H238c0.3,0,0.5-0.2,0.5-0.5s-0.2-0.5-0.5-0.5h-38.1c-0.3,0-0.5,0.2-0.5,0.5S199.6,212.9,199.9,212.9
			L199.9,212.9z"/>
		<path d="M238,214.5h-38.1c-0.3,0-0.5,0.2-0.5,0.5s0.2,0.5,0.5,0.5H238c0.3,0,0.5-0.2,0.5-0.5C238.5,214.7,238.3,214.5,238,214.5z"
			/>
	</g>
	<g class="st7">
		<rect x="199.4" y="229.2" width="39.1" height="28.2"/>
		<path d="M199.9,260.3h14.6c0.3,0,0.5-0.2,0.5-0.5c0-0.3-0.2-0.5-0.5-0.5h-14.6c-0.3,0-0.5,0.2-0.5,0.5S199.6,260.3,199.9,260.3z"
			/>
		<path d="M199.9,262.9H238c0.3,0,0.5-0.2,0.5-0.5s-0.2-0.5-0.5-0.5h-38.1c-0.3,0-0.5,0.2-0.5,0.5S199.6,262.9,199.9,262.9
			L199.9,262.9z"/>
		<path d="M238,264.5h-38.1c-0.3,0-0.5,0.2-0.5,0.5s0.2,0.5,0.5,0.5H238c0.3,0,0.5-0.2,0.5-0.5C238.5,264.7,238.3,264.5,238,264.5z"
			/>
	</g>
	<rect x="72.8" y="111" class="st6" width="113.9" height="63.6"/>
	<polygon class="st6" points="183.6,174.6 72.8,174.6 72.8,153 102.2,123.6 130,151.4 145.2,136.2 	"/>
	<circle class="st6" cx="167.6" cy="128.6" r="9.1"/>
	<path d="M185.7,193.6h-102c-0.3,0-0.5-0.2-0.5-0.5s0.2-0.5,0.5-0.5h102c0.3,0,0.5,0.2,0.5,0.5S186,193.6,185.7,193.6z"/>
	<path d="M185.7,197.8h-112c-0.3,0-0.5-0.2-0.5-0.5s0.2-0.5,0.5-0.5h112c0.3,0,0.5,0.2,0.5,0.5S186,197.8,185.7,197.8z"/>
	<path d="M185.7,202h-112c-0.3,0-0.5-0.2-0.5-0.5s0.2-0.5,0.5-0.5h112c0.3,0,0.5,0.2,0.5,0.5S186,202,185.7,202z"/>
	<path d="M185.7,206.2h-112c-0.3,0-0.5-0.2-0.5-0.5s0.2-0.5,0.5-0.5h112c0.3,0,0.5,0.2,0.5,0.5S186,206.2,185.7,206.2z"/>
	<path d="M185.7,210.3h-112c-0.3,0-0.5-0.2-0.5-0.5s0.2-0.5,0.5-0.5h112c0.3,0,0.5,0.2,0.5,0.5S186,210.3,185.7,210.3z"/>
	<path d="M185.7,214.5h-112c-0.3,0-0.5-0.2-0.5-0.5s0.2-0.5,0.5-0.5h112c0.3,0,0.5,0.2,0.5,0.5S186,214.5,185.7,214.5z"/>
	<path d="M185.7,218.7h-112c-0.3,0-0.5-0.2-0.5-0.5s0.2-0.5,0.5-0.5h112c0.3,0,0.5,0.2,0.5,0.5S186,218.7,185.7,218.7z"/>
	<path d="M185.7,222.9h-112c-0.3,0-0.5-0.2-0.5-0.5s0.2-0.5,0.5-0.5h112c0.3,0,0.5,0.2,0.5,0.5S186,222.9,185.7,222.9z"/>
	<path d="M185.7,227.1h-112c-0.3,0-0.5-0.2-0.5-0.5s0.2-0.5,0.5-0.5h112c0.3,0,0.5,0.2,0.5,0.5S186,227.1,185.7,227.1z"/>
	<path d="M185.7,231.3h-112c-0.3,0-0.5-0.2-0.5-0.5s0.2-0.5,0.5-0.5h112c0.3,0,0.5,0.2,0.5,0.5S186,231.3,185.7,231.3z"/>
	<path d="M125.7,235.5h-52c-0.3,0-0.5-0.2-0.5-0.5s0.2-0.5,0.5-0.5h52c0.3,0,0.5,0.2,0.5,0.5S126,235.5,125.7,235.5z"/>
	<path d="M185.7,245.7h-102c-0.3,0-0.5-0.2-0.5-0.5s0.2-0.5,0.5-0.5h102c0.3,0,0.5,0.2,0.5,0.5S186,245.7,185.7,245.7z"/>
	<path d="M185.7,249.9h-112c-0.3,0-0.5-0.2-0.5-0.5s0.2-0.5,0.5-0.5h112c0.3,0,0.5,0.2,0.5,0.5S186,249.9,185.7,249.9z"/>
	<path d="M185.7,254.1h-112c-0.3,0-0.5-0.2-0.5-0.5s0.2-0.5,0.5-0.5h112c0.3,0,0.5,0.2,0.5,0.5S186,254.1,185.7,254.1z"/>
	<path d="M185.7,258.3h-112c-0.3,0-0.5-0.2-0.5-0.5s0.2-0.5,0.5-0.5h112c0.3,0,0.5,0.2,0.5,0.5S186,258.3,185.7,258.3z"/>
	<path d="M185.7,262.4h-112c-0.3,0-0.5-0.2-0.5-0.5s0.2-0.5,0.5-0.5h112c0.3,0,0.5,0.2,0.5,0.5S186,262.4,185.7,262.4z"/>
	<path d="M185.7,266.6h-112c-0.3,0-0.5-0.2-0.5-0.5s0.2-0.5,0.5-0.5h112c0.3,0,0.5,0.2,0.5,0.5S186,266.6,185.7,266.6z"/>
	<path d="M165.7,270.8h-92c-0.3,0-0.5-0.2-0.5-0.5s0.2-0.5,0.5-0.5h92c0.3,0,0.5,0.2,0.5,0.5S166,270.8,165.7,270.8z"/>
	<path d="M185.7,178.4h-112c-0.3,0-0.5-0.2-0.5-0.5s0.2-0.5,0.5-0.5h112c0.3,0,0.5,0.2,0.5,0.5S186,178.4,185.7,178.4z"/>
	<path d="M157.8,181.9H73.7c-0.3,0-0.5-0.2-0.5-0.5s0.2-0.5,0.5-0.5h84.1c0.3,0,0.5,0.2,0.5,0.5S158.1,181.9,157.8,181.9
		L157.8,181.9z"/>
</g>
<g id="freepik--Plant--inject-89">
	<path class="st1" d="M43.1,293c0-0.4-1.2-36.1-7-41.7c-5.6-5.5-12.1-0.2-12.3,0l-0.6-0.8c0.1-0.1,7.4-6.1,13.7,0
		c6.1,5.9,7.3,40.9,7.3,42.4L43.1,293z"/>
	<path class="st1" d="M43.6,300c0-0.4-4-42.9,11.5-60.7l0.8,0.7c-15.2,17.5-11.3,59.5-11.3,60L43.6,300z"/>
	<path class="st1" d="M43.1,295.5l-1-0.1c0-0.5,3-48.2-8.3-58.7l0.7-0.7C46.1,246.8,43.2,293.6,43.1,295.5z"/>
	<path class="st1" d="M44.5,295.5h-1c0-1.3,0.4-32.3,9.2-37.4c1.7-1.1,3.8-1.3,5.7-0.6c5.3,2.2,8,11.7,8.1,12.1l-1,0.3
		c0-0.1-2.6-9.4-7.5-11.4c-1.6-0.6-3.4-0.4-4.8,0.5C44.9,263.8,44.6,295.2,44.5,295.5z"/>
	<path class="st1" d="M41.1,295.5l-1,0c0-0.2,1.3-24.5-5.2-33c-1.6-2.1-3.3-3-5.1-2.9c-4.3,0.3-7.8,6.5-7.9,6.6l-0.9-0.5
		c0.2-0.3,3.9-6.8,8.7-7.1c2.2-0.1,4.1,1,6,3.3C42.5,270.7,41.2,294.5,41.1,295.5z"/>
	<path class="st1" d="M42.5,298.8c-0.2-2.4-4.3-57.7,2.9-67.4l0.8,0.6c-7,9.5-2.8,66.2-2.8,66.8L42.5,298.8z"/>
	<path class="st1" d="M60.4,263.2c0,0-4.3,1.6-3,5.4s15,10,15,10s5.7-5.2,0.5-13.8S60.5,260.5,60.4,263.2z"/>
	<path class="st3" d="M60.4,263.2c0,0-4.3,1.6-3,5.4s15,10,15,10s5.7-5.2,0.5-13.8S60.5,260.5,60.4,263.2z"/>
	<path class="st1" d="M41.6,256.1c0,0,4.6-0.2,4.9,3.8c0.3,4-10,14.9-10,14.9s-7.3-2.6-5.7-12.5C32.3,252.4,40.5,253.6,41.6,256.1z"
		/>
	<path class="st3" d="M41.6,256.1c0,0,4.6-0.2,4.9,3.8c0.3,4-10,14.9-10,14.9s-7.3-2.6-5.7-12.5C32.3,252.4,40.5,253.6,41.6,256.1z"
		/>
	<path class="st1" d="M37.7,237.1c0,0,3.1-0.3,2.8-2.2s-11.9-6.7-18.8,1.1c0,0,4.4,7.6,10.8,7.7S37.7,237.1,37.7,237.1z"/>
	<path class="st3" d="M37.7,237.1c0,0,3.1-0.3,2.8-2.2s-11.9-6.7-18.8,1.1c0,0,4.4,7.6,10.8,7.7S37.7,237.1,37.7,237.1z"/>
	<path class="st1" d="M43.4,232.6c0,0-2.8,1.3-3.6-0.4s6.6-12,16.6-9c0,0,0.3,8.8-5.1,12.2S43.4,232.6,43.4,232.6z"/>
	<path class="st3" d="M43.4,232.6c0,0-2.8,1.3-3.6-0.4s6.6-12,16.6-9c0,0,0.3,8.8-5.1,12.2S43.4,232.6,43.4,232.6z"/>
	<path class="st1" d="M28.9,261.7c0,0,2.1-1.7-0.2-2.5s-13.5-0.6-13.6,10.5c0,0,13.1,2.2,14.7-2.1S28.9,261.7,28.9,261.7z"/>
	<path class="st3" d="M28.9,261.7c0,0,2.1-1.7-0.2-2.5s-13.5-0.6-13.6,10.5c0,0,13.1,2.2,14.7-2.1S28.9,261.7,28.9,261.7z"/>
	<path class="st1" d="M55.6,236.8c0,0-2.1-1.7,0.2-2.5s13.5-0.6,13.6,10.5c0,0-13.1,2.2-14.7-2.1S55.6,236.8,55.6,236.8z"/>
	<path class="st3" d="M55.6,236.8c0,0-2.1-1.7,0.2-2.5s13.5-0.6,13.6,10.5c0,0-13.1,2.2-14.7-2.1S55.6,236.8,55.6,236.8z"/>
	<path class="st1" d="M48.6,245.7c0,0-0.2-2.1,1.5-1.3s7.5,7.1,1.5,13.1c0,0-8.2-6-6.7-9.2S48.6,245.7,48.6,245.7z"/>
	<path class="st3" d="M48.6,245.7c0,0-0.2-2.1,1.5-1.3s7.5,7.1,1.5,13.1c0,0-8.2-6-6.7-9.2S48.6,245.7,48.6,245.7z"/>
	<path class="st1" d="M27,248.7c0,0,1.3-1.7-0.6-1.9s-10.2,2-8.2,10.3c0,0,10.1-0.8,10.6-4.2C29.2,249.5,27,248.7,27,248.7z"/>
	<path class="st3" d="M27,248.7c0,0,1.3-1.7-0.6-1.9s-10.2,2-8.2,10.3c0,0,10.1-0.8,10.6-4.2C29.2,249.5,27,248.7,27,248.7z"/>
	<polygon class="st1" points="61.2,326.3 26.5,326.3 22.7,288.3 65,288.3 	"/>
	<polygon class="st8" points="61.2,326.3 26.5,326.3 22.7,288.3 65,288.3 	"/>
	<rect x="20.9" y="284.1" class="st1" width="45.9" height="8.4"/>
	<rect x="20.9" y="284.1" class="st3" width="45.9" height="8.4"/>
</g>
<g id="freepik--Character--inject-89">
	<polygon class="st1" points="353.3,165.3 348.9,165.3 336.7,236.9 341.1,236.9 	"/>
	<polygon class="st1" points="337,165.3 332.6,165.3 320.4,236.9 324.8,236.9 	"/>
	<polygon class="st1" points="320.7,165.3 316.3,165.3 304.1,236.9 308.5,236.9 	"/>
	<polygon class="st4" points="353.3,165.3 348.9,165.3 336.7,236.9 341.1,236.9 	"/>
	<polygon class="st4" points="337,165.3 332.6,165.3 320.4,236.9 324.8,236.9 	"/>
	<polygon class="st4" points="320.7,165.3 316.3,165.3 304.1,236.9 308.5,236.9 	"/>
	<polygon class="st1" points="315.8,238.8 315.4,254.6 313.8,326.3 308.3,326.3 306.6,254.6 306.2,238.8 	"/>
	<polygon class="st4" points="315.8,238.8 315.4,254.6 313.8,326.3 308.3,326.3 306.6,254.6 306.2,238.8 	"/>
	<polygon class="st6" points="315.8,238.8 315.4,255.1 306.6,255.1 306.2,238.8 	"/>
	<polygon class="st1" points="345.7,326 340.6,239.9 332.3,239.9 339.4,326 	"/>
	<polygon class="st4" points="339.4,326 345.7,326 341.1,247.7 340.6,239.8 332.3,239.8 332.9,247.7 	"/>
	<polygon class="st6" points="332.3,239.8 332.9,248 341.1,248 340.6,239.8 	"/>
	<polygon class="st1" points="282.6,326 289.7,239.9 281.4,239.9 276.3,326 	"/>
	<polygon class="st4" points="282.6,326 289.1,247.7 289.7,239.8 281.4,239.8 281,247.7 276.3,326 	"/>
	<polygon class="st6" points="289.7,239.8 289.1,248 281,248 281.4,239.8 	"/>
	<path class="st1" d="M282,231h58.1c2.8,0,5,2.2,5,5v6.9l0,0H277l0,0V236C277,233.2,279.2,231,282,231z"/>
	<path class="st1" d="M345.7,173.6c-7.1-4.3-16.9-4.3-26.2,0c-4.7,2.1-10.3,2.7-12.8-0.3l0,0c-4.2-4.4,3.2-17.4,17.4-21.6
		c10.2-2.9,20.3-2.9,28.9,0c12,4.1,12.4,17.2,5.8,21.6l0,0C354.6,176.2,349.3,175.6,345.7,173.6z"/>
	<path class="st9" d="M282,231h58.1c2.8,0,5,2.2,5,5v6.9l0,0H277l0,0V236C277,233.2,279.2,231,282,231z"/>
	<path class="st9" d="M345.7,173.6c-7.1-4.3-16.9-4.3-26.2,0c-4.7,2.1-10.3,2.7-12.8-0.3l0,0c-4.2-4.4,3.2-17.4,17.4-21.6
		c10.2-2.9,20.3-2.9,28.9,0c12,4.1,12.4,17.2,5.8,21.6l0,0C354.6,176.2,349.3,175.6,345.7,173.6z"/>
	<path class="st1" d="M275.7,236.9h70.6c1.1,0,2,0.9,2,2v1.9c0,1.1-0.9,2-2,2h-70.6c-1.1,0-2-0.9-2-2V239
		C273.7,237.8,274.6,236.9,275.7,236.9z"/>
	<path class="st10" d="M275.7,236.9h70.6c1.1,0,2,0.9,2,2v1.9c0,1.1-0.9,2-2,2h-70.6c-1.1,0-2-0.9-2-2V239
		C273.7,237.8,274.6,236.9,275.7,236.9z"/>
	<g id="freepik--group--inject-89">
		<polygon class="st11" points="261.5,125.1 258.6,128 262.5,137.7 262,144.3 265.7,145.3 266.8,138.6 268.4,134.7 		"/>
		<path class="st1" d="M295.5,156c0,0-1.1,0.8-2.9,1.9c-3.9,2.5-11.1,6.7-17.4,8.7c-4.2,1.3-8,1.6-10-0.3c-5.4-5-4.5-18.2-4-22.8
			c0.1-1,0.2-1.6,0.2-1.6h4.6l1.7,1.8l7.6,8.1c0,0,11.8-19.9,19.5-22.1L295.5,156z"/>
		<path class="st9" d="M267.8,143.6l-6.5-0.1c0.1-1,0.2-1.6,0.2-1.6h4.6L267.8,143.6z"/>
		<path class="st6" d="M292.7,157.9c-3.9,2.5-11.1,6.7-17.4,8.7c-0.4-13,15.4-23,15.4-23L292.7,157.9z"/>
		<path class="st1" d="M210,317.2h9.7c0.3,0,0.6,0.2,0.7,0.5l1.6,7.1c0.1,0.6-0.3,1.3-0.9,1.4c0,0,0,0,0,0h-0.3
			c-3.1,0-5.4-0.2-9.4-0.2c-2.4,0-9.7,0.2-13.1,0.2s-3.8-3.3-2.4-3.6c6.1-1.3,10.8-3.2,12.7-5C209.1,317.3,209.6,317.2,210,317.2z"
			/>
		<path class="st1" d="M235.2,317h9.7c0.3,0,0.6,0.2,0.7,0.5l1.6,7.1c0.1,0.6-0.3,1.3-0.9,1.4c-0.1,0-0.2,0-0.3,0
			c-3.1-0.1-5.4-0.2-9.4-0.2c-2.4,0-9.8,0.3-13.1,0.3s-3.8-3.3-2.4-3.6c6.1-1.3,10.8-3.2,12.8-5C234.2,317.1,234.7,316.9,235.2,317z
			"/>
		<path class="st0" d="M204.2,317.9l18.9-0.1l13.5-80.8c0,0,35.9,5.5,64.7-1.7c4-0.9,7.9-2.4,11.5-4.2
			c24.9-13.2,25.7-42.5,25.7-42.5l-56.9-0.5l-4.4,8c0,0-47.1,8.8-61.4,17.7c-5,3.1-7.9,16.6-9.6,32.8
			C203.1,277.3,204.2,317.9,204.2,317.9z"/>
		<path class="st6" d="M204.2,317.9l18.9-0.1l13.5-80.8c0,0,35.9,5.5,64.7-1.7c-2.8-11.3-7.6-22.1-14-31.9c0,0-56.9,4.3-81,43.3
			C203.1,277.3,204.2,317.9,204.2,317.9z"/>
		<polygon points="282.4,183.5 338.6,183.5 338.6,188.5 281.7,188 		"/>
		<rect x="318.5" y="181.2" class="st0" width="2" height="9"/>
		<rect x="290.1" y="181.2" class="st0" width="2" height="9"/>
		<rect x="297.6" y="182.6" class="st5" width="10.4" height="5.7"/>
		<path class="st1" d="M339.6,148.7c0,1.3,0,2.6,0,4c0,3.9-0.1,8-0.1,11.9c0,2.4-0.1,4.7-0.2,6.9c-0.1,2.8-0.2,5.4-0.3,7.5
			c-0.1,1.8-0.2,3.3-0.3,4.4h-56.2c0,0,0-12.3,5.3-31.9l0,0c2-7.4,4.4-14.7,7.2-21.9c6.3-3.4,13.2-5.2,20.3-5.4
			c17.2,0,24.4,6.5,24.4,6.5S339.6,138.8,339.6,148.7z"/>
		<path class="st0" d="M338.6,188.5c0,0,6.6,33.5-10.9,42.5s-46.9,7.8-46.9,7.8l-32.4,80.8l-17.1-1.8c0,0,11.2-93.6,25.4-104.7
			c3.8-3,46.1-12,46.1-12L338.6,188.5z"/>
		<path class="st1" d="M289,147.2h-21.7c-0.6,0-1.1-0.4-1.3-1l-7.7-33.9c-0.1-0.4,0.2-0.9,0.6-1c0.1,0,0.1,0,0.2,0h21.7
			c0.6,0,1.1,0.4,1.3,1l7.7,33.9c0.1,0.4-0.2,0.9-0.6,1C289.2,147.2,289.1,147.2,289,147.2z"/>
		<path class="st4" d="M289,147.2h-21.7c-0.6,0-1.1-0.4-1.3-1l-7.7-33.9c-0.1-0.4,0.2-0.9,0.6-1c0.1,0,0.1,0,0.2,0h21.7
			c0.6,0,1.1,0.4,1.3,1l7.7,33.9c0.1,0.4-0.2,0.9-0.6,1C289.2,147.2,289.1,147.2,289,147.2z"/>
		<path class="st0" d="M272.1,125.3c-1.3,0-2.1,1.4-1.7,3.1s1.8,3.1,3.1,3.1s2.1-1.4,1.7-3.1C273.9,128.4,272.5,127,272.1,125.3z"/>
		<path class="st6" d="M263.6,116.7h-2.3c-0.2,0-0.4-0.2-0.5-0.4l-0.6-2.8c-0.1-0.2,0-0.3,0.2-0.4c0,0,0.1,0,0.1,0h2.3
			c0.2,0,0.4,0.2,0.5,0.4l0.6,2.8c0,0.2,0,0.3-0.2,0.4C263.7,116.7,263.6,116.7,263.6,116.7z"/>
		<path class="st0" d="M261.7,114.2c0.1,0.3-0.1,0.5-0.3,0.5c-0.3,0-0.5-0.2-0.5-0.5c-0.1-0.3,0.1-0.5,0.3-0.5
			C261.4,113.7,261.6,113.9,261.7,114.2z"/>
		<path class="st0" d="M262.9,114.2c0.1,0.3-0.1,0.5-0.3,0.5c-0.3,0-0.5-0.2-0.5-0.5c-0.1-0.3,0.1-0.5,0.3-0.5
			C262.7,113.7,262.9,113.9,262.9,114.2z"/>
		<path class="st0" d="M262,115.7c0.1,0.3-0.1,0.5-0.3,0.5c-0.3,0-0.5-0.2-0.5-0.5c-0.1-0.3,0.1-0.5,0.3-0.5
			C261.7,115.2,261.9,115.5,262,115.7z"/>
		<path class="st0" d="M263.3,115.7c0.1,0.3-0.1,0.5-0.3,0.5c-0.3,0-0.5-0.2-0.5-0.5c-0.1-0.3,0.1-0.5,0.3-0.5
			C263,115.2,263.2,115.5,263.3,115.7z"/>
		<path class="st6" d="M282.2,112.3l7.7,33.9c0.1,0.4-0.2,0.9-0.6,1c-0.1,0-0.1,0-0.2,0h-0.9c0.4,0,0.8-0.3,0.8-0.8
			c0-0.1,0-0.1,0-0.2l-7.7-33.9c-0.2-0.6-0.7-1-1.3-1h0.9C281.5,111.3,282,111.7,282.2,112.3z"/>
		<path class="st9" d="M316.9,124.3c-9.1,0.1-12.5,1.7-13.1,3.5s2.6,5.7,8.7,6.3s15.2-3.6,16.6-6.2S322.2,124.2,316.9,124.3z"/>
		<path class="st11" d="M328,127.1c-4,4.1-12.3,5.8-16.5,5.4c-2.3-0.2-5.6-1.3-5.9-5.5c2.7-2.5,3.3-2.7,4-4.6
			c0.3-1.2,0.2-2.5-0.2-3.7c-0.2-0.7-0.5-1.4-0.8-2.1l15.2-7.3C322.6,114.5,321.9,123,328,127.1z"/>
		<path class="st6" d="M320.9,114.2c0.6,6.5-7.3,7.9-11.3,8.1c0.3-1.2,0.2-2.5-0.2-3.7L320.9,114.2z"/>
		<path class="st11" d="M321.3,91.2c-3.9-5-11-5.9-16-2c0,0,0,0,0,0c-1.4,1.1-2.5,2.5-3.2,4.1l0,0c-2.3,2.5-2.4,7.7-1,10.8l0,0
			c0.1,0.7,0.2,1.4,0.4,2.1c0,2-2.1,4.8,1.3,9.7c4.2,6.2,12.1,5.4,16.3,2.7l0,0c2-1,3.6-2.5,4.6-4.4c0.3-0.6,0.6-1.2,0.9-1.8
			c1.8-4.6,0.5-9.1-1-16.3C323.1,94.2,322.4,92.6,321.3,91.2z"/>
		<path class="st0" d="M311.9,101.6c0.2,0.6,0,1.3-0.5,1.4s-0.9-0.3-1.1-1s0-1.3,0.5-1.4S311.7,101,311.9,101.6z"/>
		<path class="st0" d="M304.5,103.6c0.2,0.5,0,1.1-0.5,1.4c-0.4,0.1-0.9-0.3-1.1-1s0-1.3,0.5-1.4S304.3,103,304.5,103.6z"/>
		<path class="st12" d="M307,103.3c-0.2,2.2-0.8,4.4-1.6,6.4c1.1,0.4,2.3,0.3,3.3-0.3L307,103.3z"/>
		<path class="st0" d="M313.6,98.2c-0.1,0.1-0.3,0.1-0.4,0c-0.9-0.5-2-0.5-2.9-0.1c-0.2,0.1-0.4,0.1-0.5-0.1c0,0,0,0,0,0
			c-0.1-0.2,0-0.4,0.1-0.5l0,0c1.1-0.6,2.5-0.6,3.6,0c0.2,0.1,0.3,0.3,0.2,0.5c0,0,0,0,0,0l0,0C313.8,98.1,313.7,98.2,313.6,98.2z"
			/>
		<path class="st0" d="M301,102.4c-0.2,0.1-0.4,0-0.5-0.2c-0.1-0.1,0-0.3,0-0.4l0,0c0.6-1.1,1.7-1.9,3-2.1c0.2,0,0.4,0.2,0.4,0.4
			l0,0c0,0.2-0.1,0.4-0.4,0.4l0,0c-1,0.2-1.9,0.8-2.3,1.7C301.3,102.3,301.2,102.4,301,102.4z"/>
		<path class="st0" d="M301.7,93.5c1.1-1.6,4-0.2,4-0.2s5.5-3.1,8.1-3.5s3.4,2.6,3.8,3.2s-0.3,2.1-0.3,2.1s2.8,7.1,3.6,9.1l4.9,4.4
			c1.5-6.3,1.1-12.9-1-19.1c-3.5-10.3-20.1-5-23.4-0.1C299.3,92.4,301.7,93.5,301.7,93.5z"/>
		<path class="st11" d="M329.5,103.9c-0.6,2-2,3.7-3.8,4.7c-2.5,1.3-4.3-0.8-4.1-3.4c0.2-2.3,1.7-5.9,4.4-6.1
			S330.3,101.4,329.5,103.9z"/>
		<path class="st0" d="M310.3,112.7c-0.2,0-0.4-0.2-0.5-0.4c-0.1-0.3,0.1-0.5,0.4-0.6c0,0,0,0,0,0c2.8-0.6,2.9-4.4,2.9-4.4
			c0-0.3,0.2-0.5,0.5-0.5l0,0c0.3,0,0.5,0.2,0.5,0.5C314,108.9,313.2,112,310.3,112.7L310.3,112.7z"/>
		<path class="st0" d="M313.8,88.6c0,0-2.7,5.1-7.5,6.5s-5.2,1.5-6.2,3.3c0,0-2.9-2.5,0.4-8.1s15.7-9.6,18.4-6.1
			S313.8,88.6,313.8,88.6z"/>
		<path class="st0" d="M312.8,89.4c0,0,0.5,5.3,6.8,7.2s11.1-9.4-0.5-12.5L312.8,89.4z"/>
		<path class="st0" d="M303.2,107.7c-1.5,0-2.8-1.2-2.8-2.8c0-1.5,1.2-2.8,2.8-2.8c1.5,0,2.8,1.2,2.8,2.8S304.7,107.7,303.2,107.7
			L303.2,107.7z M303.2,102.6c-1.3,0-2.3,1-2.3,2.3c0,1.3,1,2.3,2.3,2.3c1.3,0,2.3-1,2.3-2.3C305.5,103.6,304.4,102.6,303.2,102.6z"
			/>
		<path class="st0" d="M310.9,105.7c-1.5,0-2.8-1.2-2.8-2.8c0-1.5,1.2-2.8,2.8-2.8c1.5,0,2.8,1.2,2.8,2.8S312.4,105.7,310.9,105.7
			L310.9,105.7z M310.9,100.6c-1.3,0-2.3,1-2.3,2.3c0,1.3,1,2.3,2.3,2.3c1.3,0,2.3-1,2.3-2.3C313.2,101.7,312.2,100.6,310.9,100.6
			C310.9,100.6,310.9,100.6,310.9,100.6L310.9,100.6z"/>
		<path class="st0" d="M305.6,104.5L305.6,104.5c-0.2,0-0.3-0.2-0.2-0.3c0,0,0,0,0,0c0.2-0.4,0.6-0.8,1-1c0.7-0.3,1.4-0.2,2,0.1
			c0.1,0,0.2,0.2,0.1,0.3c0,0,0,0,0,0c0,0.1-0.2,0.2-0.3,0.1c0,0,0,0,0,0c-0.5-0.3-1.1-0.3-1.6-0.1c-0.3,0.2-0.6,0.4-0.7,0.8
			C305.8,104.5,305.7,104.5,305.6,104.5z"/>
		<path class="st0" d="M313.3,102.5c-0.1,0-0.2-0.1-0.2-0.2c0-0.1,0-0.3,0.2-0.3c0,0,0,0,0,0l10-3c0.1,0,0.3,0,0.3,0.2
			c0,0.1,0,0.3-0.2,0.3c0,0,0,0,0,0L313.3,102.5L313.3,102.5z"/>
		<path class="st4" d="M319,159.7c-0.4,3-1.6,5.8-3.6,8.1c-2.1,2.4-4.9,4.1-8,4.7c-0.8,0.2-1.6,0.2-2.4,0.2c-6.9,0-11.8-5.9-11-13.1
			c0-0.4,0.1-0.8,0.2-1.2s0.1-0.6,0.2-0.9c1.2-4.4,4.2-8,8.3-9.9c1.7-0.8,3.5-1.2,5.3-1.2c1.9,0,3.7,0.5,5.4,1.4
			C317.5,150.4,319.8,155,319,159.7z"/>
		<path class="st6" d="M319,159.7c-0.4,3-1.6,5.8-3.6,8.1c-0.9-0.2,0.8-1.6,0.3-2.3c-0.7-1.1-0.9-1.9-1.1-2.1s-1.5,0-2-0.6
			c-0.6-0.7-0.8-1.7-0.6-2.6c0.2-1.1,1.6-1.2,1.3-3.7s-1.2,0-2.5,0s-1.1-0.7-1.5-2.7s0.9-0.8,2.4-0.9s1.8-1.8,1.4-3
			c-0.1-0.6,0-1.3,0.2-1.8C317.6,150.4,319.8,155,319,159.7z"/>
		<path class="st6" d="M304.3,155.9c-0.9,0.2-1.8,0.5-2.7,1c-1,0.5-0.4,2.2-2.3,1.5c-1.6-0.6-3.5,0.6-4.9-0.7c1.2-4.4,4.2-8,8.3-9.9
			c0.9,0.4,1,0.9-0.2,1.6c-2.2,1.2-4.5,2-3,3.3s1.6,0.9,2.5,1.1s1.9-1.5,2.1,0S306.4,155.3,304.3,155.9z"/>
		<path class="st6" d="M307.5,172.6c-0.8,0.2-1.6,0.2-2.4,0.2c-6.9,0-11.8-5.9-11-13.1c0-0.4,0.1-0.8,0.2-1.2c1.1,1,3.1,2.7,3.4,1.8
			s1.1-1.7,1.6-0.7s-0.4,1.7-0.2,2.1s-1.2,0.7,0.6,1.3s2.6-1.1,2.8,0.6s0.9,3.6,1.6,2.7s1.8-2.8,1.1-3.1s-1.5-0.1-1.2-1
			s-2.5,0-1.9-1.2s0.4-1.2,1.3-1.3s2.4-1.4,2.5,0s-0.3,1.3-0.2,1.9c0.1,0.6,0.3,1.1,0.5,1.6c0.4,1,0,0.8-0.2,1.8s-1.6,1.8-2,2.8
			s-0.7,1.9,0.5,2s2.4-1.6,2.4,0.6C306.8,171.3,307,172,307.5,172.6z"/>
		<path class="st11" d="M261.5,125.1l2.7-0.6l3.1,8.7l-3.9,4.6C263.3,137.7,258.9,128.9,261.5,125.1z"/>
		<path class="st6" d="M339.6,148.7c0,1.3,0,2.6,0,4c0,3.9-0.1,8-0.1,11.9c0,2.4-0.1,4.7-0.2,6.9c-0.1,2.8-0.2,5.4-0.3,7.5
			c-7.1-6-10.5-17.5-10.5-17.5c-0.2-3-0.2-6,0-9c0.5-4,2.3-7.8,5.1-10.7C335.9,143.8,338,146.1,339.6,148.7z"/>
		<path class="st1" d="M334.9,161.6c-1.7-2.1-2.8-4.7-3.2-7.4c-0.3-2.5-0.2-5,0.4-7.5l0,0c1.8-8.5,7.5-15.9,7.5-15.9
			c5.8,4.3,18.5,17.9,20,31.6S344.5,173.6,334.9,161.6z"/>
		<path class="st6" d="M331.7,154.2c-0.3-2.5-0.2-5,0.4-7.5l0,0c0,0,10.2,5.4,14.1,11.3C349.6,163.1,335.2,157,331.7,154.2z"/>
		<path class="st0" d="M302.9,145.5h10.4c0.5,0,0.9,0.4,0.9,0.9v15.4c0,0.5-0.4,0.9-0.9,0.9h-10.4c-0.5,0-0.9-0.4-0.9-0.9v-15.4
			C301.9,145.9,302.4,145.5,302.9,145.5z"/>
		<path class="st0" d="M316.6,160.4h-4.2v-1.5h4.2c0.6,0,1.1-0.5,1.1-1.1v0v-7.3c0-0.6-0.5-1.1-1.1-1.1h-4.2v-1.5h4.2
			c1.5,0,2.6,1.2,2.6,2.6v0v7.3C319.3,159.2,318.1,160.4,316.6,160.4C316.7,160.4,316.7,160.4,316.6,160.4z"/>
		<path class="st11" d="M332.8,155.1l-4.8-1.2c0,0-5.5-4.3-6.1-4.4s-5.9,0.6-5.9,0.6v7.7c0,0,8.5,2.9,11.4,0.8l5,3.8L332.8,155.1z"
			/>
		<path class="st1" d="M354.9,171.4c-8.6,3.2-21.2-5.7-25.1-8.8c-0.8-0.6-1.2-1-1.2-1l1.7-8.6l1.5,0.2l14,1.9
			C351.5,158.7,365.2,167.5,354.9,171.4z"/>
		<path class="st9" d="M331.6,153.2l-1.9,9.4c-0.8-0.6-1.2-1-1.2-1l1.7-8.6L331.6,153.2z"/>
		<path class="st4" d="M308.2,138.1c-0.2,0.5-0.2,1-0.1,1.5c0.1,0.5,0.3,1,0.4,1.5c0.2,0.5,0.3,1.1,0.3,1.7c0.1,0.6-0.2,1.2-0.7,1.6
			c0.1-0.5,0.1-1-0.1-1.5c-0.1-0.5-0.3-1-0.5-1.5c-0.2-0.6-0.3-1.1-0.2-1.7C307.3,139,307.6,138.4,308.2,138.1z"/>
		<path class="st4" d="M310.7,138.1c-0.2,0.5-0.2,1-0.1,1.5c0.1,0.5,0.3,1,0.4,1.5c0.2,0.5,0.3,1.1,0.3,1.7c0.1,0.6-0.2,1.2-0.6,1.6
			c0.1-0.5,0.1-1-0.1-1.5c-0.1-0.5-0.3-1-0.5-1.5c-0.2-0.6-0.2-1.1-0.2-1.7C309.9,139,310.2,138.4,310.7,138.1z"/>
		<path class="st4" d="M305.6,138.1c-0.2,0.5-0.2,1-0.1,1.5c0.1,0.5,0.3,1,0.4,1.5c0.2,0.5,0.3,1.1,0.3,1.7c0.1,0.6-0.2,1.2-0.7,1.6
			c0.1-0.5,0.1-1-0.1-1.5c-0.2-0.5-0.3-1-0.5-1.5c-0.2-0.6-0.3-1.1-0.2-1.7C304.8,139,305.1,138.4,305.6,138.1z"/>
	</g>
</g>
<g id="freepik--Table--inject-89">
	<path class="st1" d="M382.1,198.7c0,0,1.2-7.7-4.5-12.7s-5.1-7.9-3.5-8.3s3.1,4.6,5.6,5.9c0,0,0.1-7-2.4-9.7s-3.8-9.3-1.4-9.4
		s2.6,4,3.1,6.9s3.2,7,3.2,7s0.5-6.3,2.1-8.9s-2.7-8.6-1-11.1s4.6,2.4,4.4,7.9s-4,11.5-3.1,17.3c0,0,1.6-4.1,3.1-4.5s3-3.1,4-4.1
		s2.2,2.5,0,5.7s-7.9,11.8-7.1,18.8L382.1,198.7z"/>
	<path class="st0" d="M378.7,195.1l-1.9,11.6c-0.5,3.2,1.7,6.2,4.9,6.7c0.3,0,0.6,0.1,0.9,0.1h2c3.3,0,5.9-2.6,5.9-5.9
		c0-0.3,0-0.6-0.1-0.9l-1.8-11.6H378.7z"/>
	<polygon class="st1" points="395.2,326.3 390.7,326.3 384.7,220 392.2,220 	"/>
	<polygon class="st1" points="318.7,326.3 323.2,326.3 329.2,220 321.7,220 	"/>
	<polygon class="st1" points="354.6,326.3 359.2,326.3 361.2,220 352.6,220 	"/>
	<g class="st13">
		<polygon class="st5" points="395.2,326.3 390.7,326.3 385.9,241.5 384.7,220 392.2,220 392.8,242.7 		"/>
		<polygon class="st5" points="329.2,220 328.5,231.4 323.2,326.3 318.7,326.3 321.4,230.2 321.7,220 		"/>
	</g>
	<polygon class="st14" points="361.2,220 360.9,237.1 359.2,326.3 354.6,326.3 352.9,235.7 352.6,220 	"/>
	<polygon class="st6" points="321.7,220 329.2,220 328.5,231.4 321.4,230.2 	"/>
	<polygon class="st6" points="352.6,220 361.2,220 360.9,237.1 352.9,235.7 	"/>
	<polygon class="st6" points="392.8,242.7 385.9,241.5 384.7,220 392.2,220 	"/>
	<path class="st1" d="M318.1,211.5h77.6l0,0v9.4c0,1.1-0.9,2.1-2.1,2.1h-73.4c-1.1,0-2.1-0.9-2.1-2.1L318.1,211.5L318.1,211.5z"/>
	<path class="st6" d="M318.1,211.5h77.6l0,0v9.4c0,1.1-0.9,2.1-2.1,2.1h-73.4c-1.1,0-2.1-0.9-2.1-2.1L318.1,211.5L318.1,211.5z"/>
	<path class="st1" d="M402.7,215.6h-91.6c-1.3,0-2.4-1.1-2.4-2.4l0,0c0-1.3,1.1-2.4,2.4-2.4h91.6c1.3,0,2.4,1.1,2.4,2.4l0,0
		C405.1,214.5,404,215.6,402.7,215.6z"/>
</g>
<g id="Gruppe_2042" transform="translate(-111.503 -4.672)" class="st13">
	<path id="Pfad_3063" class="st0" d="M527.8,314.7v7.8h-1v-7.8H527.8z"/>
	<path id="Pfad_3064" class="st0" d="M529.6,322.5c0-0.4,0-1,0-1.4v-6.8h1v3.5l0,0c0.4-0.7,1.1-1.1,1.9-1c1.4,0,2.4,1.2,2.4,2.9
		c0,2-1.3,3-2.5,3c-0.8,0-1.5-0.4-1.9-1.1l0,0v0.9H529.6z M530.7,320.2c0,0.1,0,0.2,0,0.4c0.2,0.7,0.8,1.2,1.5,1.2
		c1.1,0,1.7-0.9,1.7-2.2c0-1.1-0.6-2.1-1.7-2.1c-0.7,0-1.4,0.5-1.6,1.3c0,0.1-0.1,0.3-0.1,0.4L530.7,320.2z"/>
	<path id="Pfad_3065" class="st0" d="M536.9,321.3c0.5,0.3,1.2,0.5,1.8,0.5c1,0,1.6-0.5,1.6-1.3c0-0.7-0.4-1.1-1.5-1.6
		c-1.3-0.5-2.1-1.1-2.1-2.2c0.1-1.2,1.1-2.2,2.4-2.1c0.1,0,0.1,0,0.2,0c0.6,0,1.2,0.1,1.7,0.4l-0.3,0.8c-0.5-0.2-1-0.4-1.5-0.4
		c-1.1,0-1.5,0.6-1.5,1.2c0,0.7,0.5,1.1,1.6,1.5c1.3,0.5,2,1.1,2,2.3c0,1.2-0.9,2.2-2.7,2.2c-0.7,0-1.4-0.2-2-0.5L536.9,321.3z"/>
	<path id="Pfad_3066" class="st0" d="M546.2,314.9l-1.1,1.4l0,0l1.7-0.2v0.8l-1.7-0.2l0,0l1.1,1.4l-0.7,0.4l-0.7-1.6l0,0l-0.8,1.6
		l-0.7-0.4l1.1-1.4l0,0l-1.7,0.2v-0.8l1.7,0.2l0,0l-1.1-1.4l0.7-0.4l0.7,1.6l0,0l0.7-1.6L546.2,314.9z"/>
</g>
</svg>
